# xmcd
#
# Track frame offsets: 
#        150
#        13244
#        25804
#        38326
#        53076
#        70786
#        84135
#        96183
#        108647
#        130314
#        148615
#        162500
#        181505
#
# Disc length: 2639 seconds
#
# Revision: 0
# Processed by: cddbd v1.5.2PL0 Copyright (c) Steve Scherf et al.
# Submitted via: ExactAudioCopy v0.99pb4
#
DISCID=9f0a4d0d
DTITLE=Robert Mizzell - Thanks A Lot
DYEAR=1900
DGENRE=Country
TTITLE0=Thanks A Lot
TTITLE1=Folsom Prison Blues
TTITLE2=Rose Of My Heart
TTITLE3=Next To You, Next To Me
TTITLE4=If It's Gonna Rain
TTITLE5=The Race Is On
TTITLE6=Must You Throw Dirt In My Face
TTITLE7=Friend In Need
TTITLE8=Today I Started Loving You Again (Featuring Lorraine McDonald)
TTITLE9=Long Black Train
TTITLE10=White Lightnin'
TTITLE11=Love Me
TTITLE12=Nine To Five
EXTD=
EXTT0=
EXTT1=
EXTT2=
EXTT3=
EXTT4=
EXTT5=
EXTT6=
EXTT7=
EXTT8=
EXTT9=
EXTT10=
EXTT11=
EXTT12=
PLAYORDER=
